<?xml version="1.0" encoding="UTF-8"?>
<svg width="800px" height="800px" fill="none" viewBox="0 0 24 24" xmlns="http://www.w3.org/2000/svg">
<path d="m17.122 1.8702c-1.3645-1.3645-3.6439-1.1045-4.666 0.53238l-2.8452 4.5566c-2.9e-4 4.9e-4 -0.00149 0.00251-0.00682 0.00633-0.00652 0.00467-0.02044 0.01273-0.04379 0.01931-0.05102 0.01436-0.11767 0.01325-0.1772-0.00881-0.97108-0.36-2.638-0.75547-4.3689-0.10348-0.93257 0.35127-1.3979 1.1597-1.4486 1.9799-0.04838 0.78259 0.26768 1.5871 0.849 2.1684l3.5355 3.5355-6.68 6.68c-0.39052 0.3906-0.39052 1.0237 0 1.4143 0.39052 0.3905 1.0237 0.3905 1.4142 0l6.68-6.6801 3.5355 3.5356c0.5813 0.5813 1.3858 0.8974 2.1684 0.849 0.8202-0.0507 1.6287-0.5161 1.9799-1.4486 0.652-1.731 0.2565-3.3979-0.1034-4.369-0.0221-0.0595-0.0232-0.1261-0.0089-0.1772 0.0066-0.0233 0.0147-0.0372 0.0194-0.0438 0.0038-0.0053 0.0057-0.0065 0.0062-0.0067l4.5566-2.8453c1.6369-1.0221 1.897-3.3014 0.5324-4.666l-4.9283-4.9283zm-2.9695 1.5917c0.3407-0.54562 1.1005-0.63231 1.5553-0.17746l4.9283 4.9283c0.4548 0.45485 0.3682 1.2146-0.1775 1.5553l-4.5565 2.8452c-0.9447 0.5899-1.155 1.7504-0.8328 2.6194 0.2858 0.771 0.5138 1.889 0.1071 2.9688-0.0278 0.0737-0.0587 0.1003-0.0777 0.1134-0.0242 0.0167-0.0719 0.0389-0.154 0.044-0.1775 0.011-0.431-0.0673-0.6308-0.267l-8.4852-8.4853c-0.19974-0.19974-0.278-0.45327-0.26702-0.63077 0.00507-0.08213 0.02733-0.12978 0.04404-0.15402 0.01307-0.01896 0.03968-0.04991 0.11338-0.07767 1.0798-0.40673 2.1978-0.17869 2.9688 0.10714 0.86906 0.32217 2.0295 0.1119 2.6195-0.83283l2.8452-4.5565z" clip-rule="evenodd" fill="#0F0F0F" fill-rule="evenodd"/>
</svg>
